<mxfile host="65bd71144e">
    <diagram id="yDT9HqhdNcUJ5kFNPOZ4" name="Page-1">
        <mxGraphModel dx="-54" dy="503" grid="1" gridSize="10" guides="1" tooltips="1" connect="1" arrows="1" fold="1" page="1" pageScale="1" pageWidth="850" pageHeight="1100" math="0" shadow="0">
            <root>
                <mxCell id="0"/>
                <mxCell id="1" parent="0"/>
                <mxCell id="18" style="edgeStyle=none;html=1;fontSize=16;" parent="1" source="2" target="13" edge="1">
                    <mxGeometry relative="1" as="geometry"/>
                </mxCell>
                <mxCell id="26" style="edgeStyle=none;html=1;entryX=0.5;entryY=1;entryDx=0;entryDy=0;" parent="1" source="2" target="6" edge="1">
                    <mxGeometry relative="1" as="geometry"/>
                </mxCell>
                <mxCell id="2" value="&lt;u&gt;&lt;b&gt;&lt;font style=&quot;font-size: 16px;&quot;&gt;Provider&lt;/font&gt;&lt;/b&gt;&lt;/u&gt;&lt;br&gt;&lt;div style=&quot;&quot;&gt;&amp;nbsp; &amp;nbsp; name: str&lt;/div&gt;&lt;div style=&quot;&quot;&gt;&amp;nbsp; &amp;nbsp; base_url: str&lt;/div&gt;&lt;div style=&quot;&quot;&gt;&lt;span style=&quot;background-color: initial;&quot;&gt;&amp;nbsp; &amp;nbsp; api_key_name: str&lt;/span&gt;&lt;br&gt;&lt;/div&gt;&lt;div style=&quot;&quot;&gt;&amp;nbsp; &amp;nbsp; description: Optional[str] = None&lt;/div&gt;&lt;div style=&quot;&quot;&gt;&amp;nbsp; &amp;nbsp; extra_headers: Dict[str, str] = {}&lt;/div&gt;&lt;div style=&quot;&quot;&gt;&amp;nbsp; &amp;nbsp; return_type: ReturnType = ReturnType.OPENAI&lt;/div&gt;" style="whiteSpace=wrap;html=1;verticalAlign=top;align=left;spacingLeft=6;" parent="1" vertex="1">
                    <mxGeometry x="880" y="400" width="320" height="120" as="geometry"/>
                </mxCell>
                <mxCell id="27" style="edgeStyle=none;html=1;entryX=0;entryY=0.5;entryDx=0;entryDy=0;" parent="1" source="6" target="21" edge="1">
                    <mxGeometry relative="1" as="geometry"/>
                </mxCell>
                <mxCell id="6" value="&lt;span style=&quot;&quot;&gt;&lt;b style=&quot;text-decoration-line: underline;&quot;&gt;&lt;font style=&quot;font-size: 16px;&quot;&gt;ProviderModel&lt;/font&gt;&lt;/b&gt;&lt;br&gt;&lt;div style=&quot;&quot;&gt;&amp;nbsp; &amp;nbsp; name: str&lt;/div&gt;&lt;div style=&quot;&quot;&gt;&amp;nbsp; &amp;nbsp; max_tokens: int&lt;/div&gt;&lt;div style=&quot;&quot;&gt;&amp;nbsp; &amp;nbsp; provider: base_object_def.RefStr&lt;/div&gt;&lt;div style=&quot;&quot;&gt;&amp;nbsp; &amp;nbsp; extra_headers: Dict[str, str] = {}&lt;/div&gt;&lt;div style=&quot;&quot;&gt;&amp;nbsp; &amp;nbsp; return_type: Optional[ReturnType]&amp;nbsp;&lt;/div&gt;&lt;div style=&quot;&quot;&gt;&amp;nbsp; &amp;nbsp; mode: ModelMode = ModelMode.CHAT&lt;/div&gt;&lt;/span&gt;" style="whiteSpace=wrap;html=1;verticalAlign=top;align=left;spacingLeft=6;" parent="1" vertex="1">
                    <mxGeometry x="880" y="240" width="320" height="120" as="geometry"/>
                </mxCell>
                <mxCell id="24" style="edgeStyle=none;html=1;entryX=0.5;entryY=0;entryDx=0;entryDy=0;" parent="1" source="8" target="21" edge="1">
                    <mxGeometry relative="1" as="geometry"/>
                </mxCell>
                <mxCell id="8" value="&lt;u&gt;&lt;b&gt;&lt;font style=&quot;font-size: 16px;&quot;&gt;Prompt&lt;/font&gt;&lt;/b&gt;&lt;/u&gt;&lt;br&gt;&lt;div style=&quot;&quot;&gt;&amp;nbsp;&lt;/div&gt;" style="whiteSpace=wrap;html=1;verticalAlign=top;align=left;spacingLeft=6;" parent="1" vertex="1">
                    <mxGeometry x="1240" y="120" width="320" height="80" as="geometry"/>
                </mxCell>
                <mxCell id="13" value="&lt;span style=&quot;&quot;&gt;&lt;b style=&quot;font-size: 16px;&quot;&gt;&lt;u&gt;LLMScorer&lt;br&gt;&lt;/u&gt;&lt;/b&gt;&lt;/span&gt;&lt;font size=&quot;1&quot;&gt;&amp;nbsp; &amp;nbsp; &amp;nbsp;&lt;/font&gt;&lt;span style=&quot;background-color: initial;&quot;&gt;client: LLM_clients | base_object_def.RefStr&lt;/span&gt;&lt;br&gt;&lt;font style=&quot;font-size: 12px;&quot;&gt;&amp;nbsp; &amp;nbsp; model_id: string&lt;/font&gt;&lt;span style=&quot;background-color: initial;&quot;&gt;&lt;font style=&quot;font-size: 12px;&quot;&gt;&lt;br&gt;&lt;/font&gt;&lt;br&gt;&lt;/span&gt;" style="whiteSpace=wrap;html=1;verticalAlign=top;align=left;spacingLeft=6;" parent="1" vertex="1">
                    <mxGeometry x="1240" y="420" width="320" height="80" as="geometry"/>
                </mxCell>
                <mxCell id="21" value="&lt;span style=&quot;&quot;&gt;&lt;b style=&quot;text-decoration-line: underline;&quot;&gt;&lt;font style=&quot;font-size: 16px;&quot;&gt;LLMModel&lt;/font&gt;&lt;/b&gt;&lt;br&gt;&lt;div style=&quot;&quot;&gt;&amp;nbsp; &amp;nbsp; name: str&lt;/div&gt;&lt;div style=&quot;&quot;&gt;&amp;nbsp; &amp;nbsp; default_params: ModelParams = ModelParams()&lt;/div&gt;&lt;div style=&quot;&quot;&gt;&amp;nbsp; &amp;nbsp; prompt: Optional[base_object_def.RefStr] = None&lt;/div&gt;&lt;div style=&quot;&quot;&gt;&amp;nbsp; &amp;nbsp; provider_model: base_object_def.RefStr&lt;/div&gt;&lt;/span&gt;" style="whiteSpace=wrap;html=1;verticalAlign=top;align=left;spacingLeft=6;" parent="1" vertex="1">
                    <mxGeometry x="1240" y="240" width="320" height="120" as="geometry"/>
                </mxCell>
                <mxCell id="29" style="edgeStyle=none;html=1;entryX=0.5;entryY=0;entryDx=0;entryDy=0;" parent="1" source="28" target="6" edge="1">
                    <mxGeometry relative="1" as="geometry"/>
                </mxCell>
                <mxCell id="28" value="&lt;span style=&quot;font-size: 16px;&quot;&gt;&lt;span style=&quot;font-size: 12px;&quot;&gt;&lt;u style=&quot;font-weight: bold;&quot;&gt;Cost table&lt;/u&gt;&lt;br&gt;Store cost as &amp;lt;provider&amp;gt;/&amp;lt;provider-model&amp;gt;&lt;br&gt;&lt;/span&gt;&lt;/span&gt;" style="whiteSpace=wrap;html=1;verticalAlign=top;align=left;spacingLeft=6;" parent="1" vertex="1">
                    <mxGeometry x="880" y="120" width="320" height="80" as="geometry"/>
                </mxCell>
                <mxCell id="33" value="will need create_client(model_id:str)" style="text;strokeColor=none;align=center;fillColor=none;html=1;verticalAlign=middle;whiteSpace=wrap;rounded=0;fontSize=12;" parent="1" vertex="1">
                    <mxGeometry x="1610" y="330" width="200" height="130" as="geometry"/>
                </mxCell>
            </root>
        </mxGraphModel>
    </diagram>
</mxfile>